<?xml version="1.0" standalone="no"?>
<!DOCTYPE svg PUBLIC "-//W3C//DTD SVG 20010904//EN"
 "http://www.w3.org/TR/2001/REC-SVG-20010904/DTD/svg10.dtd">
<svg version="1.0" xmlns="http://www.w3.org/2000/svg"
 width="400.000000pt" height="400.000000pt" viewBox="0 0 400.000000 400.000000"
 preserveAspectRatio="xMidYMid meet">
<metadata>
Created by potrace 1.11, written by Peter Selinger 2001-2013
</metadata>
<g transform="translate(0.000000,400.000000) scale(0.100000,-0.100000)"
fill="#000000" stroke="none">
<path d="M1920 3585 c-93 -26 -163 -83 -208 -170 -22 -42 -26 -64 -27 -135 0
-71 4 -94 26 -140 44 -93 114 -149 219 -176 143 -36 292 10 374 117 124 162
64 401 -121 486 -69 32 -184 40 -263 18z"/>
<path d="M1718 2693 c-17 -4 -18 -62 -18 -1046 l0 -1042 325 3 325 3 0 1038 0
1039 -22 5 c-26 7 -584 6 -610 0z"/>
</g>
</svg>
